M48
; DRILL file KiCad 10.0.3 date 2026-07-14T13:27:25
; FORMAT={-:-/ absolute / metric / decimal}
; #@! TF.CreationDate,2026-07-14T13:27:25+12:00
; #@! TF.GenerationSoftware,Kicad,Pcbnew,10.0.3
; #@! TF.FileFunction,MixedPlating,1,2
FMAT,2
METRIC
; #@! TA.AperFunction,Plated,PTH,ComponentDrill
T1C0.800
; #@! TA.AperFunction,Plated,PTH,ComponentDrill
T2C0.900
; #@! TA.AperFunction,Plated,PTH,ComponentDrill
T3C0.950
; #@! TA.AperFunction,Plated,PTH,ComponentDrill
T4C1.000
; #@! TA.AperFunction,Plated,PTH,ComponentDrill
T5C1.300
; #@! TA.AperFunction,NonPlated,NPTH,ComponentDrill
T6C3.200
%
G90
G05
T1
X84.0Y-66.39
X84.0Y-74.01
X123.4Y-66.19
X123.4Y-73.81
T2
X90.33Y-74.0
X92.87Y-74.0
X129.73Y-73.8
X132.27Y-73.8
T3
X85.75Y-84.25
X85.75Y-99.5
X88.25Y-84.25
X88.25Y-99.5
X90.75Y-84.25
X90.75Y-99.5
X93.25Y-84.25
X93.25Y-99.5
X154.5Y-81.125
X154.5Y-103.125
X157.0Y-81.125
X157.0Y-103.125
X159.5Y-81.125
X159.5Y-103.125
T4
X105.801Y-84.396
X105.801Y-99.636
X108.341Y-84.396
X108.341Y-99.636
X110.881Y-84.396
X110.881Y-99.636
X113.421Y-84.396
X113.421Y-99.636
X115.961Y-84.396
X115.961Y-99.636
X118.501Y-84.396
X118.501Y-99.636
X121.041Y-84.396
X121.041Y-99.636
X123.581Y-84.396
X123.581Y-99.636
X126.121Y-84.396
X126.121Y-99.636
X128.661Y-84.396
X128.661Y-99.636
X131.201Y-84.396
X131.201Y-99.636
X133.741Y-84.396
X133.741Y-99.636
X136.281Y-84.396
X136.281Y-99.636
X138.821Y-84.396
X138.821Y-99.636
X141.361Y-84.396
X141.361Y-99.636
T5
X89.25Y-62.0
X90.01Y-121.0
X94.25Y-62.0
X95.09Y-121.0
X100.17Y-121.0
X100.25Y-62.0
X105.25Y-62.0
X105.25Y-121.0
X110.33Y-121.0
X111.25Y-62.0
X115.41Y-121.0
X116.25Y-62.0
X128.5Y-62.0
X129.55Y-121.0
X133.5Y-62.0
X134.63Y-121.0
X139.5Y-62.0
X139.71Y-121.0
X144.5Y-62.0
X144.79Y-121.0
X149.87Y-121.0
X150.5Y-62.0
X154.95Y-121.0
X155.5Y-62.0
T6
X81.2Y-123.0
X81.25Y-60.25
X164.0Y-60.2
X164.0Y-123.0
M30
