%TF.GenerationSoftware,KiCad,Pcbnew,10.0.3*%
%TF.CreationDate,2026-07-14T13:29:54+12:00*%
%TF.ProjectId,powder_drum,706f7764-6572-45f6-9472-756d2e6b6963,rev?*%
%TF.SameCoordinates,Original*%
%TF.FileFunction,Copper,L1,Top*%
%TF.FilePolarity,Positive*%
%FSLAX46Y46*%
G04 Gerber Fmt 4.6, Leading zero omitted, Abs format (unit mm)*
G04 Created by KiCad (PCBNEW 10.0.3) date 2026-07-14 13:29:54*
%MOMM*%
%LPD*%
G01*
G04 APERTURE LIST*
G04 Aperture macros list*
%AMRoundRect*
0 Rectangle with rounded corners*
0 $1 Rounding radius*
0 $2 $3 $4 $5 $6 $7 $8 $9 X,Y pos of 4 corners*
0 Add a 4 corners polygon primitive as box body*
4,1,4,$2,$3,$4,$5,$6,$7,$8,$9,$2,$3,0*
0 Add four circle primitives for the rounded corners*
1,1,$1+$1,$2,$3*
1,1,$1+$1,$4,$5*
1,1,$1+$1,$6,$7*
1,1,$1+$1,$8,$9*
0 Add four rect primitives between the rounded corners*
20,1,$1+$1,$2,$3,$4,$5,0*
20,1,$1+$1,$4,$5,$6,$7,0*
20,1,$1+$1,$6,$7,$8,$9,0*
20,1,$1+$1,$8,$9,$2,$3,0*%
G04 Aperture macros list end*
%TA.AperFunction,ComponentPad*%
%ADD10R,1.700000X1.700000*%
%TD*%
%TA.AperFunction,ComponentPad*%
%ADD11C,1.700000*%
%TD*%
%TA.AperFunction,ComponentPad*%
%ADD12C,1.600000*%
%TD*%
%TA.AperFunction,ComponentPad*%
%ADD13RoundRect,0.250000X1.050000X1.050000X-1.050000X1.050000X-1.050000X-1.050000X1.050000X-1.050000X0*%
%TD*%
%TA.AperFunction,ComponentPad*%
%ADD14C,2.600000*%
%TD*%
%TA.AperFunction,ComponentPad*%
%ADD15RoundRect,0.250000X0.600000X0.725000X-0.600000X0.725000X-0.600000X-0.725000X0.600000X-0.725000X0*%
%TD*%
%TA.AperFunction,ComponentPad*%
%ADD16O,1.700000X1.950000*%
%TD*%
%TA.AperFunction,ComponentPad*%
%ADD17RoundRect,0.250000X-1.050000X-1.050000X1.050000X-1.050000X1.050000X1.050000X-1.050000X1.050000X0*%
%TD*%
%TA.AperFunction,ComponentPad*%
%ADD18R,1.800000X1.800000*%
%TD*%
%TA.AperFunction,ComponentPad*%
%ADD19C,1.800000*%
%TD*%
%TA.AperFunction,Conductor*%
%ADD20C,1.000000*%
%TD*%
%TA.AperFunction,Conductor*%
%ADD21C,0.800000*%
%TD*%
%TA.AperFunction,Conductor*%
%ADD22C,0.200000*%
%TD*%
%TA.AperFunction,Conductor*%
%ADD23C,0.400000*%
%TD*%
G04 APERTURE END LIST*
D10*
%TO.P,J1,1,Pin_1_1*%
%TO.N,/D13{slash}SCK*%
X105801486Y-84395566D03*
D11*
%TO.P,J1,2,Pin_2_2*%
%TO.N,+3V3*%
X108341486Y-84395566D03*
%TO.P,J1,3,Pin_3_3*%
%TO.N,/AREF*%
X110881486Y-84395566D03*
%TO.P,J1,4,Pin_4_4*%
%TO.N,/A0*%
X113421486Y-84395566D03*
%TO.P,J1,5,Pin_5_5*%
%TO.N,/A1*%
X115961486Y-84395566D03*
%TO.P,J1,6,Pin_6_6*%
%TO.N,/A2*%
X118501486Y-84395566D03*
%TO.P,J1,7,Pin_7_7*%
%TO.N,/A3*%
X121041486Y-84395566D03*
%TO.P,J1,8,Pin_8_8*%
%TO.N,/A4{slash}SDA*%
X123581486Y-84395566D03*
%TO.P,J1,9,Pin_9_9*%
%TO.N,/A5{slash}SCL*%
X126121486Y-84395566D03*
%TO.P,J1,10,Pin_10_10*%
%TO.N,/A6*%
X128661486Y-84395566D03*
%TO.P,J1,11,Pin_11_11*%
%TO.N,/A7*%
X131201486Y-84395566D03*
%TO.P,J1,12,Pin_12_12*%
%TO.N,+5V*%
X133741486Y-84395566D03*
%TO.P,J1,13,Pin_13_13*%
%TO.N,/~{RESET}*%
X136281486Y-84395566D03*
%TO.P,J1,14,Pin_14_14*%
%TO.N,GND*%
X138821486Y-84395566D03*
%TO.P,J1,15,Pin_15_15*%
%TO.N,VCC*%
X141361486Y-84395566D03*
%TD*%
D10*
%TO.P,J2,1,Pin_1_1*%
%TO.N,/D12{slash}MISO*%
X105801486Y-99635566D03*
D11*
%TO.P,J2,2,Pin_2_2*%
%TO.N,/\u002AD11{slash}MOSI*%
X108341486Y-99635566D03*
%TO.P,J2,3,Pin_3_3*%
%TO.N,/\u002AD10{slash}SS*%
X110881486Y-99635566D03*
%TO.P,J2,4,Pin_4_4*%
%TO.N,/\u002AD9{slash}A ENA-*%
X113421486Y-99635566D03*
%TO.P,J2,5,Pin_5_5*%
%TO.N,/D8{slash}A PUL-*%
X115961486Y-99635566D03*
%TO.P,J2,6,Pin_6_6*%
%TO.N,/D7{slash}A DIR-*%
X118501486Y-99635566D03*
%TO.P,J2,7,Pin_7_7*%
%TO.N,/\u002AD6{slash}B ENA-*%
X121041486Y-99635566D03*
%TO.P,J2,8,Pin_8_8*%
%TO.N,/\u002AD5{slash}B PUL-*%
X123581486Y-99635566D03*
%TO.P,J2,9,Pin_9_9*%
%TO.N,/D4{slash}B DIR-*%
X126121486Y-99635566D03*
%TO.P,J2,10,Pin_10_10*%
%TO.N,/\u002AD3{slash}RELAY A*%
X128661486Y-99635566D03*
%TO.P,J2,11,Pin_11_11*%
%TO.N,/D2{slash}RELAY B*%
X131201486Y-99635566D03*
%TO.P,J2,12,Pin_12_12*%
%TO.N,GND*%
X133741486Y-99635566D03*
%TO.P,J2,13,Pin_13_13*%
%TO.N,/~{RESET}*%
X136281486Y-99635566D03*
%TO.P,J2,14,Pin_14_14*%
%TO.N,/D0{slash}RX*%
X138821486Y-99635566D03*
%TO.P,J2,15,Pin_15_15*%
%TO.N,/D1{slash}TX*%
X141361486Y-99635566D03*
%TD*%
D12*
%TO.P,R1,1*%
%TO.N,+5V*%
X123400000Y-66190000D03*
%TO.P,R1,2*%
%TO.N,Net-(D1-A)*%
X123400000Y-73810000D03*
%TD*%
D13*
%TO.P,J11,1,Pin_1_1*%
%TO.N,+12V*%
X116250000Y-62000000D03*
D14*
%TO.P,J11,2,Pin_2_2*%
%TO.N,GND*%
X111250000Y-62000000D03*
%TD*%
D15*
%TO.P,J8,1,Pin_1_1*%
%TO.N,+5V*%
X159500000Y-103125000D03*
D16*
%TO.P,J8,2,Pin_2_2*%
%TO.N,/D2{slash}RELAY B*%
X157000000Y-103125000D03*
%TO.P,J8,3,Pin_3_3*%
%TO.N,GND*%
X154500000Y-103125000D03*
%TD*%
D17*
%TO.P,J5,1,Pin_1_1*%
%TO.N,+5V*%
X90010000Y-121000000D03*
D14*
%TO.P,J5,2,Pin_2_2*%
%TO.N,/\u002AD9{slash}A ENA-*%
X95090000Y-121000000D03*
%TO.P,J5,3,Pin_3_3*%
%TO.N,+5V*%
X100170000Y-121000000D03*
%TO.P,J5,4,Pin_4_4*%
%TO.N,/D8{slash}A PUL-*%
X105250000Y-121000000D03*
%TO.P,J5,5,Pin_5_5*%
%TO.N,+5V*%
X110330000Y-121000000D03*
%TO.P,J5,6,Pin_6_6*%
%TO.N,/D7{slash}A DIR-*%
X115410000Y-121000000D03*
%TD*%
D13*
%TO.P,J4,1,Pin_1_1*%
%TO.N,+5V*%
X133500000Y-62000000D03*
D14*
%TO.P,J4,2,Pin_2_2*%
%TO.N,GND*%
X128500000Y-62000000D03*
%TD*%
D13*
%TO.P,J12,1,Pin_1_1*%
%TO.N,+5V*%
X144500000Y-62000000D03*
D14*
%TO.P,J12,2,Pin_2_2*%
%TO.N,GND*%
X139500000Y-62000000D03*
%TD*%
D13*
%TO.P,J3,1,Pin_1_1*%
%TO.N,+12V*%
X94250000Y-62000000D03*
D14*
%TO.P,J3,2,Pin_2_2*%
%TO.N,GND*%
X89250000Y-62000000D03*
%TD*%
D15*
%TO.P,J9,1,Pin_1_1*%
%TO.N,+5V*%
X159500000Y-81125000D03*
D16*
%TO.P,J9,2,Pin_2_2*%
%TO.N,/\u002AD3{slash}RELAY A*%
X157000000Y-81125000D03*
%TO.P,J9,3,Pin_3_3*%
%TO.N,GND*%
X154500000Y-81125000D03*
%TD*%
D15*
%TO.P,J7,1,Pin_1_1*%
%TO.N,+5V*%
X93250000Y-99500000D03*
D16*
%TO.P,J7,2,Pin_2_2*%
%TO.N,GND*%
X90750000Y-99500000D03*
%TO.P,J7,3,Pin_3_3*%
%TO.N,/D0{slash}RX*%
X88250000Y-99500000D03*
%TO.P,J7,4,Pin_4_4*%
%TO.N,/D1{slash}TX*%
X85750000Y-99500000D03*
%TD*%
D18*
%TO.P,D1,1,K_1*%
%TO.N,GND*%
X132270000Y-73800000D03*
D19*
%TO.P,D1,2,A_2*%
%TO.N,Net-(D1-A)*%
X129730000Y-73800000D03*
%TD*%
D18*
%TO.P,D2,1,K_1*%
%TO.N,GND*%
X92870000Y-74000000D03*
D19*
%TO.P,D2,2,A_2*%
%TO.N,Net-(D2-A)*%
X90330000Y-74000000D03*
%TD*%
D13*
%TO.P,J13,1,Pin_1_1*%
%TO.N,+5V*%
X155500000Y-62000000D03*
D14*
%TO.P,J13,2,Pin_2_2*%
%TO.N,GND*%
X150500000Y-62000000D03*
%TD*%
D17*
%TO.P,J6,1,Pin_1_1*%
%TO.N,+5V*%
X129550000Y-121000000D03*
D14*
%TO.P,J6,2,Pin_2_2*%
%TO.N,/\u002AD6{slash}B ENA-*%
X134630000Y-121000000D03*
%TO.P,J6,3,Pin_3_3*%
%TO.N,+5V*%
X139710000Y-121000000D03*
%TO.P,J6,4,Pin_4_4*%
%TO.N,/\u002AD5{slash}B PUL-*%
X144790000Y-121000000D03*
%TO.P,J6,5,Pin_5_5*%
%TO.N,+5V*%
X149870000Y-121000000D03*
%TO.P,J6,6,Pin_6_6*%
%TO.N,/D4{slash}B DIR-*%
X154950000Y-121000000D03*
%TD*%
D12*
%TO.P,R2,1*%
%TO.N,+12V*%
X84000000Y-66390000D03*
%TO.P,R2,2*%
%TO.N,Net-(D2-A)*%
X84000000Y-74010000D03*
%TD*%
D13*
%TO.P,J10,1,Pin_1_1*%
%TO.N,+12V*%
X105250000Y-62000000D03*
D14*
%TO.P,J10,2,Pin_2_2*%
%TO.N,GND*%
X100250000Y-62000000D03*
%TD*%
D15*
%TO.P,J14,1,Pin_1_1*%
%TO.N,+5V*%
X93250000Y-84250000D03*
D16*
%TO.P,J14,2,Pin_2_2*%
%TO.N,GND*%
X90750000Y-84250000D03*
%TO.P,J14,3,Pin_3_3*%
%TO.N,/A5{slash}SCL*%
X88250000Y-84250000D03*
%TO.P,J14,4,Pin_4_4*%
%TO.N,/A4{slash}SDA*%
X85750000Y-84250000D03*
%TD*%
%TO.N,+5V*%
D20*
X129550000Y-120950000D02*
X133000000Y-117500000D01*
X149870000Y-121000000D02*
X159500000Y-111370000D01*
X142000000Y-59500000D02*
X153000000Y-59500000D01*
X139710000Y-121000000D02*
X143210000Y-117500000D01*
X159500000Y-111370000D02*
X159500000Y-103125000D01*
X103670000Y-117500000D02*
X103585000Y-117585000D01*
X113830000Y-117500000D02*
X103670000Y-117500000D01*
X113830000Y-117500000D02*
X133000000Y-117500000D01*
X133741486Y-86458514D02*
X132600000Y-87600000D01*
X103585000Y-117585000D02*
X103500000Y-117500000D01*
X133000000Y-117500000D02*
X143210000Y-117500000D01*
X133500000Y-62000000D02*
X136000000Y-59500000D01*
X132600000Y-87600000D02*
X109600000Y-87600000D01*
X159500000Y-103125000D02*
X159500000Y-66000000D01*
X110330000Y-121000000D02*
X113830000Y-117500000D01*
X97700000Y-99500000D02*
X93250000Y-99500000D01*
X103500000Y-117500000D02*
X93510000Y-117500000D01*
X143210000Y-117500000D02*
X153370000Y-117500000D01*
X133741486Y-84395566D02*
X133741486Y-86458514D01*
X129550000Y-121000000D02*
X129550000Y-120950000D01*
X142000000Y-59500000D02*
X144500000Y-62000000D01*
X136000000Y-59500000D02*
X142000000Y-59500000D01*
X109600000Y-87600000D02*
X97700000Y-99500000D01*
X103585000Y-117585000D02*
X100170000Y-121000000D01*
X93510000Y-117500000D02*
X90010000Y-121000000D01*
X93250000Y-99500000D02*
X93250000Y-84250000D01*
X159500000Y-66000000D02*
X155500000Y-62000000D01*
X153000000Y-59500000D02*
X155500000Y-62000000D01*
%TO.N,GND*%
X90750000Y-84250000D02*
X90750000Y-82650000D01*
X133741486Y-99635566D02*
X133741486Y-92858514D01*
D21*
X90750000Y-84250000D02*
X90750000Y-84000000D01*
D20*
X90750000Y-99500000D02*
X90750000Y-84250000D01*
X121000000Y-64800000D02*
X123800000Y-62000000D01*
X92000000Y-64750000D02*
X97500000Y-64750000D01*
X154500000Y-81125000D02*
X154500000Y-103125000D01*
D21*
X154500000Y-103125000D02*
X154500000Y-84025000D01*
D22*
X89250000Y-61050000D02*
X89250000Y-62000000D01*
D20*
X108500000Y-64750000D02*
X111250000Y-62000000D01*
X147750000Y-64750000D02*
X150500000Y-62000000D01*
X138821486Y-87778514D02*
X138821486Y-84395566D01*
D21*
X154500000Y-84025000D02*
X154475000Y-84000000D01*
D20*
X138821486Y-83221486D02*
X138821486Y-84395566D01*
X133741486Y-92858514D02*
X138821486Y-87778514D01*
X154500000Y-103125000D02*
X154500000Y-71500000D01*
X137200000Y-81600000D02*
X138821486Y-83221486D01*
X154500000Y-103525000D02*
X154500000Y-103125000D01*
X136750000Y-64750000D02*
X147750000Y-64750000D01*
X91800000Y-81600000D02*
X137200000Y-81600000D01*
X89250000Y-62000000D02*
X92000000Y-64750000D01*
X131250000Y-64750000D02*
X136750000Y-64750000D01*
X90750000Y-82650000D02*
X91800000Y-81600000D01*
X123800000Y-62000000D02*
X128500000Y-62000000D01*
X108550000Y-64800000D02*
X121000000Y-64800000D01*
X154500000Y-71500000D02*
X147750000Y-64750000D01*
X97500000Y-64750000D02*
X100250000Y-62000000D01*
X136750000Y-64750000D02*
X139500000Y-62000000D01*
X108500000Y-64750000D02*
X108550000Y-64800000D01*
X128500000Y-62000000D02*
X131250000Y-64750000D01*
X97500000Y-64750000D02*
X108500000Y-64750000D01*
%TO.N,/D0{slash}RX*%
D23*
X91250000Y-102500000D02*
X135957052Y-102500000D01*
X88250000Y-99500000D02*
X91250000Y-102500000D01*
X135957052Y-102500000D02*
X138821486Y-99635566D01*
%TO.N,/D1{slash}TX*%
X85750000Y-99500000D02*
X89750000Y-103500000D01*
X137497052Y-103500000D02*
X141361486Y-99635566D01*
X89750000Y-103500000D02*
X137497052Y-103500000D01*
%TO.N,+12V*%
D20*
X102750000Y-59500000D02*
X105250000Y-62000000D01*
X113750000Y-59500000D02*
X116250000Y-62000000D01*
X96750000Y-59500000D02*
X102750000Y-59500000D01*
X102750000Y-59500000D02*
X113750000Y-59500000D01*
X94250000Y-62000000D02*
X96750000Y-59500000D01*
%TD*%
M02*
